<svg version="1.2" xmlns="http://www.w3.org/2000/svg" viewBox="0 0 318 42" width="318" height="42">
	<title>patreon_download_button_map_pmcstyle-svg</title>
	<style>
		.s0 { fill: #3366cc } 
		.s1 { fill: #ffffff } 
	</style>
	<path id="Shape 1" class="s0" d="m5 0h308c2.8 0 5 2.2 5 5v32c0 2.8-2.2 5-5 5h-308c-2.8 0-5-2.2-5-5v-32c0-2.8 2.2-5 5-5z"/>
	<path id=" DOWNLOAD " fill-rule="evenodd" class="s1" d="m132.3 26h-3.3v-9.9h3.2q1.3 0 2.4 0.5 1 0.6 1.6 1.7 0.6 1.1 0.6 2.5v0.4q0 1.4-0.6 2.5-0.5 1.1-1.6 1.7-1 0.6-2.3 0.6zm-0.1-8.1h-0.8v6.2h0.8q1.1 0.1 1.6-0.7 0.6-0.7 0.6-2.2v-0.4q0-1.4-0.6-2.2-0.5-0.7-1.6-0.7zm14.3 2.9v0.4q0 1.5-0.6 2.6-0.5 1.1-1.5 1.7-1 0.6-2.3 0.6-1.2 0-2.2-0.5-1-0.6-1.6-1.7-0.5-1.1-0.5-2.5v-0.6q0-1.4 0.5-2.5 0.5-1.2 1.5-1.8 1.1-0.6 2.3-0.6 1.3 0 2.3 0.6 1 0.6 1.5 1.7 0.6 1.1 0.6 2.6zm-2.5 0.5v-0.5q0-1.5-0.5-2.2-0.4-0.8-1.4-0.8-1.8 0-1.9 2.7v0.7q0 1.5 0.5 2.3 0.5 0.8 1.4 0.8 1 0 1.4-0.8 0.5-0.8 0.5-2.2zm10-5.2l1.4 6.2 1.2-6.2h2.4l-2.2 9.9h-2.4l-1.4-5.7-1.3 5.7h-2.5l-2.1-9.9h2.4l1.1 6.2 1.4-6.2zm14.2 0v9.9h-2.4l-3.6-6.2v6.2h-2.4v-9.9h2.4l3.6 6.1v-6.1zm3.9 0v8h4.2v1.9h-6.6v-9.9zm13.2 4.7v0.4q0 1.5-0.6 2.6-0.5 1.1-1.5 1.7-1 0.6-2.3 0.6-1.3 0-2.2-0.5-1-0.6-1.6-1.7-0.5-1.1-0.6-2.5v-0.6q0-1.4 0.6-2.5 0.5-1.2 1.5-1.8 1-0.6 2.3-0.6 1.3 0 2.3 0.6 0.9 0.6 1.5 1.7 0.5 1.1 0.6 2.6zm-2.5 0.5v-0.5q0-1.5-0.5-2.2-0.5-0.8-1.4-0.8-1.8 0-1.9 2.7v0.7q0 1.5 0.5 2.3 0.5 0.8 1.4 0.8 0.9 0 1.4-0.8 0.5-0.8 0.5-2.2zm9.8 4.7l-0.6-1.9h-3.3l-0.6 1.9h-2.5l3.6-9.9h2.3l3.7 9.9zm-2.3-7.2l-1 3.5h2.1zm8.8 7.2h-3.3v-10h3.2q1.4 0 2.4 0.6 1.1 0.6 1.7 1.7 0.6 1.1 0.6 2.4v0.5q0 1.3-0.6 2.4-0.6 1.1-1.7 1.7-1 0.6-2.3 0.7zm-0.1-8.2h-0.8v6.3h0.9q1 0 1.6-0.7 0.5-0.8 0.5-2.2v-0.4q0-1.5-0.5-2.2-0.6-0.8-1.7-0.8z"/>
</svg>