<svg version="1.2" xmlns="http://www.w3.org/2000/svg" viewBox="0 0 318 42" width="318" height="42">
	<title>explore-worlds</title>
	<style>
		.s0 { fill: #3366cc } 
		.s1 { fill: #c5c5c5 } 
		.s2 { fill: #ebebeb } 
		.s3 { fill: #ffffff } 
	</style>
	<rect id="Shape 2" class="s0" width="318" height="42" rx="5"></rect>
	<path id="Shape 3" class="s1" d="m17.1 14.1l13.9 6.9v14l-14-6.1z"/>
	<path id="Shape 3 copy" class="s2" d="m45 28.9l-14 6.1v-14l13.9-6.9z"/>
	<path id="Shape 4" class="s3" d="m31 21l-14-7h28zm0-14l14 7h-28z"/>
	<path id="Explore on Dynmap" class="s3" aria-label="Explore on Dynmap"  d="m102.9 20.1v1.6h-4v2.7h4.7v1.6h-6.7v-10h6.6v1.7h-4.6v2.4zm3.6-4.1l1.9 3.5 1.9-3.5h2.3l-2.9 5 3 5h-2.4l-1.9-3.5-1.9 3.5h-2.4l3-5-2.9-5zm11 6.5h-1.8v3.5h-2v-10h3.8q1.2 0 2 0.5 0.9 0.4 1.3 1.1 0.5 0.8 0.5 1.7 0 1.5-1 2.4-1 0.8-2.8 0.8zm-1.8-4.8v3.1h1.8q0.9 0 1.3-0.4 0.4-0.3 0.4-1 0-0.8-0.4-1.2-0.4-0.5-1.2-0.5zm9-1.7v8.4h4.4v1.6h-6.4v-10zm13.2 4.8v0.4q0 1.5-0.5 2.6-0.5 1.1-1.5 1.7-0.9 0.6-2.2 0.6-1.2 0-2.2-0.6-1-0.6-1.5-1.7-0.5-1.1-0.5-2.5v-0.5q0-1.5 0.5-2.6 0.5-1.1 1.5-1.7 1-0.6 2.2-0.6 1.2 0 2.2 0.6 1 0.6 1.5 1.7 0.5 1.1 0.5 2.6zm-2 0.5v-0.5q0-1.6-0.6-2.4-0.6-0.8-1.6-0.8-1 0-1.6 0.8-0.6 0.8-0.6 2.4v0.4q0 1.6 0.6 2.4 0.6 0.9 1.6 0.9 1 0 1.6-0.9 0.6-0.8 0.6-2.3zm9.1 4.7l-1.9-3.6h-1.6v3.6h-2.1v-10h3.7q1.8 0 2.7 0.8 1 0.8 1 2.3 0 1-0.4 1.7-0.5 0.6-1.4 1l2.2 4.1v0.1zm-3.5-8.3v3h1.6q0.8 0 1.2-0.4 0.5-0.4 0.5-1.1 0-0.7-0.4-1.1-0.4-0.4-1.3-0.4zm12.9 2.4v1.6h-3.9v2.7h4.6v1.6h-6.7v-10h6.7v1.7h-4.6v2.4zm13.5 0.7v0.4q0 1.5-0.5 2.6-0.5 1.1-1.5 1.7-1 0.6-2.2 0.6-1.2 0-2.2-0.6-1-0.6-1.5-1.7-0.6-1.1-0.6-2.5v-0.5q0-1.5 0.6-2.6 0.5-1.1 1.5-1.7 0.9-0.6 2.2-0.6 1.2 0 2.2 0.6 1 0.6 1.5 1.7 0.5 1.1 0.5 2.6zm-2.1 0.5v-0.5q0-1.6-0.5-2.4-0.6-0.8-1.6-0.8-1.1 0-1.6 0.8-0.6 0.8-0.6 2.4v0.4q0 1.6 0.6 2.4 0.5 0.9 1.6 0.9 1 0 1.6-0.9 0.5-0.8 0.5-2.3zm11.7-5.3v10h-2.1l-3.9-6.5v6.5h-2.1v-10h2.1l4 6.6v-6.6zm8.3 10h-3.1v-10h3.1q1.3 0 2.3 0.6 1.1 0.6 1.7 1.7 0.5 1.1 0.5 2.5v0.5q0 1.3-0.5 2.4-0.6 1.1-1.6 1.7-1.1 0.6-2.4 0.6zm0-8.3h-1v6.7h1q1.2 0 1.8-0.8 0.6-0.8 0.7-2.3v-0.5q0-1.5-0.7-2.3-0.6-0.8-1.8-0.8zm7.1-1.7l2.1 4.5 2-4.5h2.3l-3.3 6.4v3.6h-2.1v-3.6l-3.2-6.4zm15.3 0v10h-2l-4-6.5v6.5h-2.1v-10h2.1l4 6.6v-6.6zm1.8 0h2.7l2.5 7.3 2.6-7.3h2.7v10h-2.1v-2.7l0.2-4.7-2.7 7.4h-1.4l-2.7-7.4 0.2 4.7v2.7h-2zm18.7 10l-0.7-2.1h-3.6l-0.7 2.1h-2.2l3.7-10h1.9l3.8 10zm-2.5-7.5l-1.3 3.7h2.5zm9.5 4h-1.8v3.5h-2.1v-10h3.9q1.1 0 2 0.4 0.8 0.4 1.3 1.2 0.4 0.8 0.4 1.7 0 1.5-1 2.3-1 0.9-2.7 0.9zm-1.8-4.8v3.1h1.8q0.8 0 1.2-0.4 0.5-0.4 0.5-1.1 0-0.7-0.5-1.1-0.4-0.5-1.1-0.5z"/>
</svg>