<svg version="1.2" xmlns="http://www.w3.org/2000/svg" viewBox="0 0 318 42" width="318" height="42">
	<title>join_discord</title>
	<style>
		.s0 { fill: #141518 } 
		.s1 { fill: #5865f2 } 
		.s2 { fill: #ffffff } 
	</style>
	<rect id="Shape 1" class="s0" width="318" height="42" rx="5"></rect>
	<path id="Layer" fill-rule="evenodd" class="s1" d="m42.1 10.3c3.7 5.6 5.6 11.8 4.9 19q0 0-0.1 0c-2.8 2.1-5.6 3.4-8.3 4.2q0 0.1-0.1 0-0.9-1.3-1.7-2.8 0-0.1 0.1-0.1 1.3-0.5 2.6-1.2c0-0.1 0-0.2 0-0.2q-0.3-0.2-0.5-0.4-0.1-0.1-0.1 0c-5.4 2.4-11.3 2.4-16.8 0q0-0.1-0.1 0-0.2 0.2-0.5 0.4c0 0 0 0.1 0 0.2q1.3 0.7 2.6 1.2 0.1 0 0.1 0.1-0.7 1.5-1.7 2.8-0.1 0.1-0.1 0c-2.7-0.8-5.5-2.1-8.3-4.2q-0.1 0-0.1 0c-0.6-6.2 0.6-12.5 4.9-19q0.1 0 0.1 0c2.1-1 4.4-1.7 6.7-2.1q0.1 0 0.2 0.1c0.3 0.5 0.6 1.1 0.8 1.7q3.8-0.6 7.6 0c0.2-0.5 0.6-1.2 0.9-1.7q0-0.1 0.1-0.1c2.3 0.4 4.6 1.1 6.7 2.1q0.1 0 0.1 0zm-14.1 11.8c0-1.8-1.3-3.3-3-3.3-1.7 0-3 1.5-3 3.3 0 1.9 1.3 3.4 3 3.4 1.7 0 3-1.5 3-3.4zm11 0c0-1.8-1.3-3.3-3-3.3-1.6 0-2.9 1.5-2.9 3.3 0 1.9 1.3 3.4 2.9 3.4 1.7 0 3-1.5 3-3.4z"/>
	<path id="Join Discord" class="s2" aria-label="Join Discord"  d="m123.9 22.9v-6.9h2.1v6.9q0 1-0.5 1.7-0.4 0.7-1.2 1.1-0.7 0.4-1.7 0.4-1.6 0-2.4-0.8-0.9-0.8-0.9-2.2h2q0 0.7 0.3 1 0.4 0.4 1 0.4 0.6 0 1-0.4 0.3-0.4 0.3-1.2zm12-2.1v0.4q0 1.5-0.5 2.6-0.6 1.1-1.5 1.7-1 0.6-2.2 0.6-1.3 0-2.2-0.6-1-0.6-1.6-1.7-0.5-1.1-0.5-2.5v-0.5q0-1.5 0.5-2.6 0.6-1.1 1.5-1.7 1-0.6 2.2-0.6 1.3 0 2.3 0.6 0.9 0.6 1.5 1.7 0.5 1.1 0.5 2.6zm-2.1 0.5v-0.5q0-1.6-0.6-2.4-0.5-0.8-1.6-0.8-1 0-1.5 0.8-0.6 0.8-0.6 2.4v0.4q0 1.6 0.5 2.4 0.6 0.9 1.7 0.9 1 0 1.5-0.9 0.6-0.8 0.6-2.3zm5.8-5.3v10h-2.1v-10zm10 0v10h-2.1l-3.9-6.5v6.5h-2.1v-10h2.1l4 6.6v-6.6zm8.3 10h-3.1v-10h3.1q1.3 0 2.3 0.6 1.1 0.6 1.7 1.7 0.5 1.1 0.5 2.5v0.5q0 1.3-0.5 2.4-0.6 1.1-1.6 1.7-1.1 0.6-2.4 0.6zm0-8.3h-1v6.7h1q1.2 0 1.8-0.8 0.6-0.8 0.7-2.3v-0.5q0-1.5-0.7-2.3-0.6-0.8-1.8-0.8zm8.2-1.7v10h-2v-10zm7 7.4q0-0.6-0.4-0.9-0.4-0.3-1.5-0.7-1-0.3-1.7-0.6-1.6-1-1.6-2.5 0-0.8 0.4-1.4 0.5-0.7 1.3-1 0.9-0.4 1.9-0.4 1.1 0 1.9 0.4 0.9 0.4 1.3 1.1 0.5 0.7 0.5 1.6h-2.1q0-0.7-0.4-1.1-0.4-0.4-1.2-0.4-0.8 0-1.2 0.4-0.4 0.3-0.4 0.8 0 0.5 0.5 0.8 0.5 0.3 1.4 0.6 1.8 0.6 2.6 1.3 0.8 0.8 0.8 2 0 1.3-1 2-1 0.7-2.6 0.7-1.2 0-2.1-0.4-1-0.4-1.5-1.1-0.5-0.8-0.5-1.7h2.1q0 1.6 2 1.6 0.7 0 1.1-0.3 0.4-0.3 0.4-0.8zm9.2-0.7h2.1q-0.1 1.6-1.2 2.5-1.1 0.9-2.8 0.9-1.9 0-3-1.2-1.1-1.3-1.1-3.6v-0.6q0-1.4 0.5-2.5 0.5-1.1 1.4-1.7 1-0.6 2.2-0.6 1.7 0 2.8 0.9 1 1 1.2 2.6h-2.1q0-0.9-0.5-1.4-0.5-0.4-1.4-0.4-1 0-1.5 0.7-0.5 0.8-0.6 2.3v0.8q0 1.6 0.5 2.3 0.5 0.8 1.6 0.8 0.9 0 1.4-0.5 0.5-0.4 0.5-1.3zm11.6-1.9v0.4q0 1.5-0.5 2.6-0.5 1.1-1.5 1.7-1 0.6-2.2 0.6-1.3 0-2.2-0.6-1-0.6-1.5-1.7-0.6-1.1-0.6-2.5v-0.5q0-1.5 0.6-2.6 0.5-1.1 1.5-1.7 0.9-0.6 2.2-0.6 1.2 0 2.2 0.6 0.9 0.6 1.5 1.7 0.5 1.1 0.5 2.6zm-2.1 0.5v-0.5q0-1.6-0.5-2.4-0.6-0.8-1.6-0.8-1.1 0-1.6 0.8-0.6 0.8-0.6 2.4v0.4q0 1.6 0.6 2.4 0.5 0.9 1.6 0.9 1 0 1.6-0.9 0.5-0.8 0.5-2.3zm9.1 4.7l-1.8-3.6h-1.7v3.6h-2v-10h3.7q1.8 0 2.7 0.8 1 0.8 1 2.3 0 1-0.5 1.7-0.4 0.6-1.3 1l2.1 4.1v0.1zm-3.5-8.3v3h1.7q0.8 0 1.2-0.4 0.4-0.4 0.4-1.1 0-0.7-0.4-1.1-0.4-0.4-1.2-0.4zm10 8.3h-3.1v-10h3q1.4 0 2.4 0.6 1 0.6 1.6 1.7 0.6 1.1 0.6 2.5v0.5q0 1.3-0.6 2.4-0.6 1.1-1.6 1.7-1 0.6-2.3 0.6zm-0.1-8.3h-1v6.7h1q1.2 0 1.9-0.8 0.6-0.8 0.6-2.3v-0.5q0-1.5-0.6-2.3-0.7-0.8-1.9-0.8z"/>
</svg>