<svg version="1.2" baseProfile="tiny-ps" xmlns="http://www.w3.org/2000/svg" viewBox="0 0 318 42" width="318" height="42">
	<title>patreon_download_button_big_style-svg</title>
	<style>
		tspan { white-space:pre }
		.shp0 { fill: #ff424d } 
		.shp1 { fill: #ffffff } 
	</style>
	<path id="Shape 1" class="shp0" d="M5 0L313 0C315.76 0 318 2.23 318 5L318 37C318 39.77 315.76 42 313 42L5 42C2.23 42 0 39.77 0 37L0 5C0 2.23 2.23 0 5 0Z" />
	<path id=" DOWNLOAD " fill-rule="evenodd" class="shp1" d="M117.15 20.58C117.15 25.57 113.69 29 108.32 29L102 29L102 12.15L108.32 12.15C113.69 12.15 117.15 15.56 117.15 20.58ZM108.05 25.45C111.15 25.45 112.97 23.67 112.97 20.58C112.97 17.48 111.15 15.66 108.05 15.66L106.11 15.66L106.11 25.45L108.05 25.45ZM127.42 29.17C122.64 29.17 118.76 25.59 118.76 20.53C118.76 15.46 122.64 11.91 127.42 11.91C132.22 11.91 136.04 15.46 136.04 20.53C136.04 25.59 132.2 29.17 127.42 29.17ZM127.42 25.42C130.11 25.42 131.86 23.48 131.86 20.53C131.86 17.53 130.11 15.63 127.42 15.63C124.68 15.63 122.96 17.53 122.96 20.53C122.96 23.48 124.68 25.42 127.42 25.42ZM137.43 12.15L141.82 12.15L144.24 24.42L147.24 12.15L151.76 12.15L154.64 24.42L157.08 12.15L161.5 12.15L157.11 29L152.14 29L149.45 17.91L146.67 29L141.7 29L137.43 12.15ZM178.64 12.15L178.64 29L174.53 29L167.67 18.61L167.67 29L163.56 29L163.56 12.15L167.67 12.15L174.53 22.59L174.53 12.15L178.64 12.15ZM185.72 12.15L185.72 25.83L191.09 25.83L191.09 29L181.61 29L181.61 12.15L185.72 12.15ZM201.03 29.17C196.25 29.17 192.36 25.59 192.36 20.53C192.36 15.46 196.25 11.91 201.03 11.91C205.83 11.91 209.64 15.46 209.64 20.53C209.64 25.59 205.8 29.17 201.03 29.17ZM201.03 25.42C203.72 25.42 205.47 23.48 205.47 20.53C205.47 17.53 203.72 15.63 201.03 15.63C198.29 15.63 196.56 17.53 196.56 20.53C196.56 23.48 198.29 25.42 201.03 25.42ZM222.41 26.02L216.12 26.02L215.12 29L210.82 29L216.92 12.15L221.67 12.15L227.76 29L223.42 29L222.41 26.02ZM219.27 16.69L217.2 22.86L221.36 22.86L219.27 16.69ZM244.76 20.58C244.76 25.57 241.3 29 235.92 29L229.61 29L229.61 12.15L235.92 12.15C241.3 12.15 244.76 15.56 244.76 20.58ZM235.66 25.45C238.76 25.45 240.58 23.67 240.58 20.58C240.58 17.48 238.76 15.66 235.66 15.66L233.72 15.66L233.72 25.45L235.66 25.45Z" />
	<path id="P line" class="shp1" d="M13 7L18 7L18 34L13 34L13 7Z" />
	<path id="P circle" class="shp1" d="M30.5 27C25.25 27 21 22.75 21 17.5C21 12.25 25.25 8 30.5 8C35.75 8 40 12.25 40 17.5C40 22.75 35.75 27 30.5 27Z" />
</svg>