<svg version="1.2" xmlns="http://www.w3.org/2000/svg" viewBox="0 0 318 42" width="318" height="42">
	<title>patreon_downloadMAP-svg</title>
	<style>
		.s0 { fill: #ff424d } 
		.s1 { fill: #ffffff } 
	</style>
	<path id="Shape 1" class="s0" d="m5 0h308c2.8 0 5 2.2 5 5v32c0 2.8-2.2 5-5 5h-308c-2.8 0-5-2.2-5-5v-32c0-2.8 2.2-5 5-5z"/>
	<path id="Layer" class="s1" d="m40.2 15.5c0-3.6-2.8-6.5-6-7.6-4.1-1.3-9.4-1.1-13.2 0.7-4.7 2.2-6.2 7.1-6.2 11.9-0.1 3.9 0.3 14.3 6.2 14.4 4.4 0.1 5-5.5 7-8.3 1.5-1.9 3.3-2.4 5.6-3 3.9-1 6.6-4.1 6.6-8.1z"/>
	<path id="SUPPORT MCMEDDON" class="s1" aria-label="SUPPORT MCMEDDON"  d="m99.1 26.2q-0.9 0-1.9-0.4-0.9-0.3-1.7-1l1.3-1.5q0.5 0.4 1.2 0.7 0.6 0.3 1.2 0.3 0.7 0 1-0.3 0.4-0.2 0.4-0.7 0-0.4-0.4-0.6-0.4-0.3-1-0.5l-1.3-0.6q-0.5-0.2-1-0.5-0.4-0.4-0.7-0.9-0.3-0.5-0.3-1.3 0-0.8 0.4-1.4 0.5-0.7 1.3-1.1 0.8-0.4 1.8-0.4 0.8 0 1.7 0.4 0.8 0.3 1.4 0.9l-1.1 1.4q-0.5-0.3-0.9-0.5-0.5-0.3-1.1-0.3-0.6 0-0.9 0.3-0.3 0.2-0.3 0.6 0 0.5 0.4 0.7 0.4 0.2 1 0.5l1.3 0.5q0.9 0.4 1.4 1 0.5 0.6 0.5 1.6 0 0.9-0.4 1.5-0.4 0.7-1.3 1.2-0.8 0.4-2 0.4zm9.3 0q-2 0-3-1.1-1-1.2-1-3.6v-5.3h2.3v5.5q0 1.4 0.4 2 0.4 0.6 1.2 0.6 0.9 0 1.3-0.6 0.5-0.6 0.5-2v-5.5h2.1v5.3q0 2.4-1 3.6-1 1.1-2.9 1.1zm8.4-0.2h-2.2v-9.8h3.3q1.1 0 2 0.3 0.9 0.3 1.4 1 0.5 0.7 0.5 1.9 0 1.1-0.5 1.8-0.5 0.8-1.4 1.1-0.9 0.4-1.9 0.4h-1.2zm0-8v2.9h1.1q1.8 0 1.8-1.5 0-0.8-0.5-1.1-0.5-0.3-1.4-0.3zm8.9 8h-2.2v-9.8h3.4q1.1 0 1.9 0.3 0.9 0.3 1.4 1 0.6 0.7 0.6 1.9 0 1.1-0.6 1.8-0.5 0.8-1.3 1.1-0.9 0.4-2 0.4h-1.2zm0-8.1v3h1.1q1.8 0 1.8-1.6 0-0.7-0.5-1-0.4-0.4-1.3-0.4zm10.7 8.3q-1.4-0.1-2.4-0.7-1-0.6-1.5-1.7-0.6-1.2-0.6-2.8 0-1.6 0.6-2.7 0.5-1.1 1.5-1.7 1-0.6 2.4-0.6 1.3 0 2.3 0.6 1 0.6 1.5 1.7 0.6 1.1 0.6 2.7 0 1.6-0.6 2.8-0.5 1.1-1.5 1.7-1 0.6-2.3 0.6zm0-1.9q1 0 1.6-0.8 0.5-0.9 0.5-2.4 0-1.4-0.5-2.3-0.6-0.8-1.6-0.8-1 0-1.6 0.8-0.6 0.9-0.6 2.3 0 1.5 0.6 2.4 0.6 0.8 1.6 0.8zm8.5 1.8h-2.3v-9.8h3.6q1 0 1.9 0.3 0.8 0.2 1.3 0.9 0.5 0.7 0.5 1.8 0 1.1-0.4 1.8-0.5 0.7-1.3 1.1l2.2 3.9h-2.5l-1.8-3.6h-1.2zm0-8v2.8h1.1q0.9 0 1.3-0.4 0.5-0.4 0.5-1.1 0-0.7-0.5-1-0.4-0.3-1.3-0.3zm10.8 8h-2.2v-7.9h-2.7v-1.8h7.6v1.8h-2.7zm9.2 0h-1.9v-9.8h2.4l1.5 4.4q0.2 0.4 0.3 0.9 0.2 0.4 0.3 0.9h0.1q0.1-0.5 0.2-0.9 0.2-0.5 0.3-0.9l1.6-4.4h2.4v9.8h-2v-3.6q0-0.4 0-1 0.1-0.6 0.1-1.2 0.1-0.6 0.1-1.1l-0.8 2.3-1.4 3.8h-1.2l-1.4-3.8-0.8-2.3h-0.1q0.1 0.5 0.2 1.1 0 0.6 0.1 1.2 0 0.6 0 1zm13.6 0.2q-1.3 0-2.3-0.6-1-0.5-1.7-1.6-0.6-1.2-0.6-2.8 0-1.6 0.6-2.8 0.7-1.1 1.7-1.7 1.1-0.6 2.3-0.6 1 0 1.7 0.4 0.8 0.3 1.3 0.9l-1.2 1.4q-0.4-0.4-0.8-0.6-0.4-0.2-0.9-0.2-0.7 0-1.2 0.4-0.6 0.3-0.9 1-0.3 0.7-0.3 1.7 0 1.5 0.6 2.4 0.7 0.8 1.8 0.8 0.6 0 1-0.3 0.5-0.2 0.9-0.6l1.1 1.4q-1.2 1.4-3.1 1.4zm6.6-0.2h-2v-9.7h2.4l1.6 4.3q0.2 0.4 0.3 0.9 0.1 0.5 0.3 0.9 0.2-0.4 0.3-0.9 0.1-0.5 0.3-0.9l1.5-4.3h2.4v9.7h-2v-3.5q0-0.5 0.1-1.1 0-0.6 0.1-1.2 0.1-0.6 0.1-1.1h-0.1l-0.7 2.3-1.4 3.8h-1.3l-1.4-3.8-0.7-2.3h-0.1q0.1 0.5 0.1 1.1 0.1 0.6 0.1 1.2 0.1 0.6 0.1 1.1zm15.7 0h-6.3v-9.8h6.2v1.8h-4v2h3.4v1.8h-3.4v2.3h4.1zm4.8 0h-2.8v-9.8h2.7q1.5 0 2.6 0.5 1.1 0.5 1.7 1.6 0.6 1.1 0.6 2.8 0 1.6-0.6 2.7-0.6 1.1-1.7 1.7-1 0.5-2.5 0.5zm-0.6-8v6.2h0.4q0.8 0 1.4-0.3 0.7-0.3 1-1 0.4-0.7 0.4-1.8 0-1.2-0.4-1.9-0.3-0.6-1-0.9-0.6-0.3-1.4-0.3zm10.2 8h-2.9v-9.8h2.8q1.5 0 2.6 0.5 1.1 0.5 1.7 1.6 0.6 1.1 0.6 2.8 0 1.6-0.6 2.7-0.6 1.1-1.7 1.7-1.1 0.5-2.5 0.5zm-0.7-8v6.2h0.4q0.9 0 1.5-0.3 0.6-0.3 1-1 0.3-0.7 0.3-1.8 0-1.2-0.3-1.9-0.4-0.6-1-0.9-0.6-0.3-1.5-0.3zm11.3 8.2q-1.3 0-2.3-0.6-1-0.7-1.6-1.8-0.5-1.1-0.5-2.7 0-1.6 0.5-2.8 0.6-1.1 1.6-1.7 1-0.6 2.3-0.6 1.3 0 2.3 0.6 1 0.6 1.6 1.7 0.6 1.2 0.6 2.8 0 1.6-0.6 2.7-0.6 1.1-1.6 1.8-1 0.6-2.3 0.6zm0-1.9q1 0 1.6-0.9 0.6-0.9 0.6-2.3 0-1.5-0.6-2.3-0.6-0.9-1.6-0.9-1 0-1.6 0.9-0.5 0.8-0.5 2.3 0 1.4 0.5 2.3 0.6 0.9 1.6 0.9zm8.4 1.7h-2.1v-9.8h2.3l2.5 4.9 1 2.1h0.1q-0.1-0.7-0.2-1.7-0.1-1-0.1-1.8v-3.5h2.1v9.8h-2.3l-2.5-4.9-1-2.1h-0.1q0.1 0.8 0.2 1.7 0.1 1 0.1 1.8z"/>
</svg>