<svg version="1.2" baseProfile="tiny-ps" xmlns="http://www.w3.org/2000/svg" viewBox="0 0 318 42" width="318" height="42">
	<title>patreon_downloadThisAsset</title>
	<style>
		tspan { white-space:pre }
		.shp0 { fill: #ff424d } 
		.shp1 { fill: #ffffff } 
	</style>
	<path id="Shape 1" class="shp0" d="M5 0L313 0C315.76 0 318 2.23 318 5L318 37C318 39.76 315.76 42 313 42L5 42C2.23 42 0 39.76 0 37L0 5C0 2.23 2.23 0 5 0Z" />
	<path id="P line" class="shp1" d="M12 7L17 7L17 34L12 34L12 7Z" />
	<path id="P circle" class="shp1" d="M29.5 27.58C23.93 27.58 19.42 23.07 19.42 17.5C19.42 11.93 23.93 7.42 29.5 7.42C35.07 7.42 39.58 11.93 39.58 17.5C39.58 23.07 35.07 27.58 29.5 27.58Z" />
	<path id="DOWNLOAD: ASSET " fill="#ffffff" aria-label="DOWNLOAD: ASSET"  d="M113.03 26L109.75 26L109.75 16.05L112.96 16.05Q114.28 16.05 115.33 16.65Q116.38 17.24 116.97 18.34Q117.57 19.42 117.57 20.78L117.57 21.24Q117.57 22.6 116.99 23.69Q116.42 24.77 115.36 25.38Q114.32 25.99 113.03 26ZM112.96 17.9L112.15 17.9L112.15 24.15L112.99 24.15Q114.02 24.15 114.57 23.42Q115.13 22.68 115.13 21.24L115.13 20.8Q115.13 19.36 114.57 18.63Q114.02 17.9 112.96 17.9ZM127.23 20.77L127.23 21.23Q127.23 22.68 126.69 23.81Q126.15 24.93 125.15 25.54Q124.16 26.14 122.89 26.14Q121.62 26.14 120.63 25.56Q119.65 24.97 119.1 23.88Q118.55 22.79 118.52 21.39L118.52 20.83Q118.52 19.36 119.06 18.25Q119.6 17.13 120.59 16.52Q121.6 15.91 122.88 15.91Q124.14 15.91 125.13 16.51Q126.12 17.11 126.67 18.23Q127.22 19.33 127.23 20.77ZM124.79 21.27L124.79 20.81Q124.79 19.33 124.29 18.56Q123.8 17.79 122.88 17.79Q121.07 17.79 120.97 20.5L120.96 21.23Q120.96 22.69 121.45 23.48Q121.93 24.26 122.89 24.26Q123.8 24.26 124.29 23.49Q124.78 22.72 124.79 21.27ZM134.79 16.05L136.18 22.29L137.32 16.05L139.7 16.05L137.59 26L135.1 26L133.77 20.33L132.46 26L129.98 26L127.86 16.05L130.25 16.05L131.39 22.29L132.75 16.05L134.79 16.05ZM148.95 16.05L148.95 26L146.56 26L143.04 19.81L143.04 26L140.64 26L140.64 16.05L143.04 16.05L146.56 22.24L146.56 16.05L148.95 16.05ZM152.87 16.05L152.87 24.15L157.04 24.15L157.04 26L150.47 26L150.47 16.05L152.87 16.05ZM166.05 20.77L166.05 21.23Q166.05 22.68 165.51 23.81Q164.97 24.93 163.97 25.54Q162.98 26.14 161.71 26.14Q160.43 26.14 159.45 25.56Q158.46 24.97 157.91 23.88Q157.36 22.79 157.34 21.39L157.34 20.83Q157.34 19.36 157.87 18.25Q158.41 17.13 159.41 16.52Q160.41 15.91 161.69 15.91Q162.96 15.91 163.95 16.51Q164.94 17.11 165.49 18.23Q166.04 19.33 166.05 20.77ZM163.61 21.27L163.61 20.81Q163.61 19.33 163.11 18.56Q162.61 17.79 161.69 17.79Q159.89 17.79 159.78 20.5L159.78 21.23Q159.78 22.69 160.26 23.48Q160.75 24.26 161.71 24.26Q162.61 24.26 163.11 23.49Q163.6 22.72 163.61 21.27ZM173.37 26L172.79 24.14L169.5 24.14L168.93 26L166.37 26L170.02 16.05L172.27 16.05L175.95 26L173.37 26ZM171.15 18.84L170.08 22.29L172.22 22.29L171.15 18.84ZM179.95 26L176.68 26L176.68 16.05L179.88 16.05Q181.2 16.05 182.25 16.65Q183.31 17.24 183.89 18.34Q184.49 19.42 184.5 20.78L184.5 21.24Q184.5 22.6 183.92 23.69Q183.34 24.77 182.29 25.38Q181.24 25.99 179.95 26ZM179.88 17.9L179.08 17.9L179.08 24.15L179.91 24.15Q180.94 24.15 181.5 23.42Q182.05 22.68 182.05 21.24L182.05 20.8Q182.05 19.36 181.5 18.63Q180.94 17.9 179.88 17.9ZM187.05 23.76Q187.6 23.76 187.96 24.09Q188.32 24.41 188.32 24.92Q188.32 25.43 187.96 25.75Q187.6 26.08 187.05 26.08Q186.5 26.08 186.14 25.75Q185.78 25.42 185.78 24.92Q185.78 24.42 186.14 24.09Q186.5 23.76 187.05 23.76ZM187.05 18.31Q187.6 18.31 187.96 18.64Q188.32 18.96 188.32 19.46Q188.32 19.97 187.96 20.3Q187.6 20.62 187.05 20.62Q186.5 20.62 186.14 20.29Q185.78 19.96 185.78 19.46Q185.78 18.97 186.14 18.64Q186.5 18.31 187.05 18.31ZM199.65 26L199.07 24.14L195.78 24.14L195.21 26L192.64 26L196.29 16.05L198.55 16.05L202.23 26L199.65 26ZM197.42 18.84L196.36 22.29L198.5 22.29L197.42 18.84ZM208.09 23.35Q208.09 22.83 207.71 22.53Q207.34 22.24 206.41 21.93Q205.47 21.61 204.87 21.32Q202.94 20.37 202.94 18.71Q202.94 17.88 203.42 17.25Q203.9 16.61 204.79 16.27Q205.67 15.91 206.77 15.91Q207.84 15.91 208.69 16.29Q209.54 16.68 210.01 17.39Q210.49 18.09 210.49 19L208.09 19Q208.09 18.39 207.72 18.06Q207.35 17.72 206.71 17.72Q206.07 17.72 205.69 18.01Q205.33 18.29 205.33 18.73Q205.33 19.11 205.74 19.42Q206.15 19.73 207.18 20.07Q208.21 20.39 208.87 20.78Q210.49 21.71 210.49 23.34Q210.49 24.65 209.5 25.39Q208.52 26.14 206.8 26.14Q205.59 26.14 204.61 25.71Q203.63 25.27 203.13 24.52Q202.64 23.76 202.64 22.77L205.04 22.77Q205.04 23.57 205.46 23.96Q205.87 24.33 206.8 24.33Q207.4 24.33 207.74 24.08Q208.09 23.82 208.09 23.35ZM216.85 23.35Q216.85 22.83 216.47 22.53Q216.11 22.24 215.17 21.93Q214.23 21.61 213.64 21.32Q211.7 20.37 211.7 18.71Q211.7 17.88 212.18 17.25Q212.67 16.61 213.55 16.27Q214.43 15.91 215.53 15.91Q216.6 15.91 217.45 16.29Q218.31 16.68 218.78 17.39Q219.25 18.09 219.25 19L216.86 19Q216.86 18.39 216.48 18.06Q216.11 17.72 215.48 17.72Q214.83 17.72 214.46 18.01Q214.09 18.29 214.09 18.73Q214.09 19.11 214.5 19.42Q214.91 19.73 215.94 20.07Q216.97 20.39 217.64 20.78Q219.25 21.71 219.25 23.34Q219.25 24.65 218.27 25.39Q217.28 26.14 215.57 26.14Q214.36 26.14 213.37 25.71Q212.39 25.27 211.89 24.52Q211.4 23.76 211.4 22.77L213.81 22.77Q213.81 23.57 214.22 23.96Q214.64 24.33 215.57 24.33Q216.16 24.33 216.5 24.08Q216.85 23.82 216.85 23.35ZM226.65 20L226.65 21.78L222.88 21.78L222.88 24.15L227.34 24.15L227.34 26L220.48 26L220.48 16.05L227.35 16.05L227.35 17.9L222.88 17.9L222.88 20L226.65 20ZM236.26 16.05L236.26 17.9L233.28 17.9L233.28 26L230.88 26L230.88 17.9L227.95 17.9L227.95 16.05L236.26 16.05Z" />
</svg>