<svg version="1.2" baseProfile="tiny-ps" xmlns="http://www.w3.org/2000/svg" viewBox="0 0 318 42" width="318" height="42">
	<title>patreon_download_button_map_pmcstyle-svg</title>
	<style>
		tspan { white-space:pre }
		.shp0 { fill: #ff424d } 
		.shp1 { fill: #ffffff } 
	</style>
	<path id="Shape 1" class="shp0" d="M5 0L313 0C315.76 0 318 2.23 318 5L318 37C318 39.77 315.76 42 313 42L5 42C2.23 42 0 39.77 0 37L0 5C0 2.23 2.23 0 5 0Z" />
	<path id="Shape 2" class="shp0" d="M5 34L35 34L35 42L5 42L5 34Z" />
	<path id="P line" class="shp1" d="M12 7L17 7L17 34L12 34L12 7Z" />
	<path id="P circle" class="shp1" d="M29.5 27.58C23.93 27.58 19.42 23.07 19.42 17.5C19.42 11.93 23.93 7.42 29.5 7.42C35.07 7.42 39.58 11.93 39.58 17.5C39.58 23.07 35.07 27.58 29.5 27.58Z" />
	<path id=" DOWNLOAD " fill-rule="evenodd" class="shp1" d="M132.28 26L129.01 26L129.01 16.05L132.21 16.05C133.09 16.05 133.88 16.25 134.59 16.65C135.29 17.04 135.84 17.61 136.23 18.34C136.62 19.06 136.82 19.87 136.83 20.78L136.83 21.24C136.83 22.15 136.64 22.96 136.25 23.69C135.86 24.41 135.32 24.97 134.62 25.38C133.92 25.79 133.14 25.99 132.28 26ZM132.21 17.9L131.41 17.9L131.41 24.15L132.24 24.15C132.93 24.15 133.46 23.91 133.83 23.42C134.2 22.93 134.38 22.2 134.38 21.24L134.38 20.8C134.38 19.84 134.2 19.12 133.83 18.63C133.46 18.14 132.92 17.9 132.21 17.9ZM146.49 20.77L146.49 21.23C146.49 22.2 146.31 23.06 145.95 23.81C145.59 24.56 145.08 25.13 144.41 25.54C143.75 25.94 143 26.14 142.15 26.14C141.3 26.14 140.55 25.95 139.89 25.56C139.24 25.17 138.72 24.61 138.35 23.88C137.99 23.15 137.8 22.32 137.78 21.39L137.78 20.83C137.78 19.85 137.96 18.99 138.31 18.25C138.67 17.5 139.18 16.93 139.85 16.52C140.52 16.11 141.28 15.91 142.13 15.91C142.98 15.91 143.73 16.11 144.39 16.51C145.05 16.91 145.56 17.48 145.93 18.23C146.3 18.96 146.48 19.81 146.49 20.77ZM144.05 21.27L144.05 20.81C144.05 19.82 143.88 19.07 143.55 18.56C143.22 18.05 142.75 17.79 142.13 17.79C140.93 17.79 140.3 18.69 140.23 20.5L140.22 21.23C140.22 22.2 140.38 22.95 140.7 23.48C141.03 24 141.51 24.26 142.15 24.26C142.76 24.26 143.22 24 143.55 23.49C143.88 22.98 144.04 22.24 144.05 21.27ZM154.05 16.05L155.44 22.29L156.58 16.05L158.96 16.05L156.84 26L154.36 26L153.02 20.33L151.72 26L149.24 26L147.12 16.05L149.5 16.05L150.64 22.29L152.01 16.05L154.05 16.05ZM168.21 16.05L168.21 26L165.82 26L162.29 19.81L162.29 26L159.89 26L159.89 16.05L162.29 16.05L165.81 22.24L165.81 16.05L168.21 16.05ZM172.12 16.05L172.12 24.15L176.3 24.15L176.3 26L169.72 26L169.72 16.05L172.12 16.05ZM185.3 20.77L185.3 21.23C185.3 22.2 185.12 23.06 184.76 23.81C184.4 24.56 183.89 25.13 183.22 25.54C182.56 25.94 181.81 26.14 180.96 26.14C180.11 26.14 179.36 25.95 178.71 25.56C178.05 25.17 177.54 24.61 177.17 23.88C176.8 23.15 176.61 22.32 176.59 21.39L176.59 20.83C176.59 19.85 176.77 18.99 177.13 18.25C177.49 17.5 178 16.93 178.66 16.52C179.33 16.11 180.1 15.91 180.95 15.91C181.79 15.91 182.54 16.11 183.2 16.51C183.86 16.91 184.37 17.48 184.74 18.23C185.11 18.96 185.29 19.81 185.3 20.77ZM182.86 21.27L182.86 20.81C182.86 19.82 182.69 19.07 182.36 18.56C182.03 18.05 181.56 17.79 180.95 17.79C179.74 17.79 179.11 18.69 179.04 20.5L179.03 21.23C179.03 22.2 179.19 22.95 179.52 23.48C179.84 24 180.32 24.26 180.96 24.26C181.57 24.26 182.03 24 182.36 23.49C182.69 22.98 182.85 22.24 182.86 21.27ZM192.63 26L192.05 24.14L188.76 24.14L188.19 26L185.62 26L189.27 16.05L191.53 16.05L195.21 26L192.63 26ZM190.4 18.84L189.33 22.29L191.47 22.29L190.4 18.84ZM199.21 26L195.93 26L195.93 16.05L199.14 16.05C200.02 16.05 200.81 16.25 201.51 16.65C202.21 17.04 202.76 17.61 203.15 18.34C203.55 19.06 203.75 19.87 203.75 20.78L203.75 21.24C203.75 22.15 203.56 22.96 203.17 23.69C202.79 24.41 202.25 24.97 201.54 25.38C200.85 25.79 200.07 25.99 199.21 26ZM199.14 17.9L198.33 17.9L198.33 24.15L199.17 24.15C199.86 24.15 200.38 23.91 200.75 23.42C201.12 22.93 201.3 22.2 201.3 21.24L201.3 20.8C201.3 19.84 201.12 19.12 200.75 18.63C200.38 18.14 199.85 17.9 199.14 17.9Z" />
</svg>