<svg version="1.2" baseProfile="tiny-ps" xmlns="http://www.w3.org/2000/svg" viewBox="0 0 318 42" width="318" height="42">
	<title>patreon_downloadMAP-svg</title>
	<style>
		tspan { white-space:pre }
		.shp0 { fill: #ff424d } 
		.shp1 { fill: #ffffff } 
	</style>
	<path id="Shape 1" class="shp0" d="M5 0L313 0C315.76 0 318 2.23 318 5L318 37C318 39.76 315.76 42 313 42L5 42C2.23 42 0 39.76 0 37L0 5C0 2.23 2.23 0 5 0Z" />
	<path id="P line" class="shp1" d="M12 7L17 7L17 34L12 34L12 7Z" />
	<path id="P circle" class="shp1" d="M29.5 27.58C23.93 27.58 19.42 23.07 19.42 17.5C19.42 11.93 23.93 7.42 29.5 7.42C35.07 7.42 39.58 11.93 39.58 17.5C39.58 23.07 35.07 27.58 29.5 27.58Z" />
	<path id=" DOWNLOAD: MAP " fill-rule="evenodd" class="shp1" d="M112.92 26L109.64 26L109.64 16.05L112.85 16.05C113.73 16.05 114.52 16.25 115.22 16.65C115.92 17.04 116.47 17.61 116.86 18.34C117.26 19.06 117.46 19.87 117.46 20.78L117.46 21.24C117.46 22.15 117.27 22.96 116.88 23.69C116.5 24.41 115.96 24.97 115.25 25.38C114.56 25.79 113.78 25.99 112.92 26ZM112.85 17.9L112.04 17.9L112.04 24.15L112.88 24.15C113.57 24.15 114.09 23.91 114.46 23.42C114.83 22.93 115.01 22.2 115.01 21.24L115.01 20.8C115.01 19.84 114.83 19.12 114.46 18.63C114.09 18.14 113.56 17.9 112.85 17.9ZM127.12 20.77L127.12 21.23C127.12 22.2 126.94 23.06 126.58 23.81C126.22 24.56 125.71 25.13 125.04 25.54C124.38 25.94 123.63 26.14 122.78 26.14C121.93 26.14 121.18 25.95 120.52 25.56C119.87 25.17 119.36 24.61 118.99 23.88C118.62 23.15 118.43 22.32 118.41 21.39L118.41 20.83C118.41 19.85 118.59 18.99 118.95 18.25C119.31 17.5 119.82 16.93 120.48 16.52C121.15 16.11 121.92 15.91 122.77 15.91C123.61 15.91 124.36 16.11 125.02 16.51C125.68 16.91 126.19 17.48 126.56 18.23C126.93 18.96 127.11 19.81 127.12 20.77ZM124.68 21.27L124.68 20.81C124.68 19.82 124.51 19.07 124.18 18.56C123.85 18.05 123.38 17.79 122.77 17.79C121.56 17.79 120.93 18.69 120.86 20.5L120.85 21.23C120.85 22.2 121.01 22.95 121.34 23.48C121.66 24 122.14 24.26 122.78 24.26C123.39 24.26 123.85 24 124.18 23.49C124.51 22.98 124.67 22.24 124.68 21.27ZM134.68 16.05L136.07 22.29L137.21 16.05L139.59 16.05L137.48 26L134.99 26L133.66 20.33L132.35 26L129.87 26L127.75 16.05L130.14 16.05L131.28 22.29L132.64 16.05L134.68 16.05ZM148.84 16.05L148.84 26L146.45 26L142.93 19.81L142.93 26L140.53 26L140.53 16.05L142.93 16.05L146.45 22.24L146.45 16.05L148.84 16.05ZM152.76 16.05L152.76 24.15L156.93 24.15L156.93 26L150.36 26L150.36 16.05L152.76 16.05ZM165.94 20.77L165.94 21.23C165.94 22.2 165.76 23.06 165.4 23.81C165.04 24.56 164.53 25.13 163.86 25.54C163.2 25.94 162.44 26.14 161.59 26.14C160.74 26.14 159.99 25.95 159.34 25.56C158.68 25.17 158.17 24.61 157.8 23.88C157.43 23.15 157.24 22.32 157.23 21.39L157.23 20.83C157.23 19.85 157.41 18.99 157.76 18.25C158.12 17.5 158.63 16.93 159.3 16.52C159.97 16.11 160.73 15.91 161.58 15.91C162.43 15.91 163.18 16.11 163.84 16.51C164.5 16.91 165.01 17.48 165.38 18.23C165.75 18.96 165.93 19.81 165.94 20.77ZM163.5 21.27L163.5 20.81C163.5 19.82 163.33 19.07 163 18.56C162.67 18.05 162.19 17.79 161.58 17.79C160.38 17.79 159.74 18.69 159.67 20.5L159.67 21.23C159.67 22.2 159.83 22.95 160.15 23.48C160.48 24 160.96 24.26 161.59 24.26C162.2 24.26 162.67 24 163 23.49C163.33 22.98 163.49 22.24 163.5 21.27ZM173.26 26L172.68 24.14L169.39 24.14L168.82 26L166.26 26L169.91 16.05L172.16 16.05L175.84 26L173.26 26ZM171.04 18.84L169.97 22.29L172.11 22.29L171.04 18.84ZM179.84 26L176.57 26L176.57 16.05L179.77 16.05C180.65 16.05 181.44 16.25 182.14 16.65C182.85 17.04 183.39 17.61 183.78 18.34C184.18 19.06 184.38 19.87 184.39 20.78L184.39 21.24C184.39 22.15 184.19 22.96 183.8 23.69C183.42 24.41 182.88 24.97 182.18 25.38C181.48 25.79 180.7 25.99 179.84 26ZM179.77 17.9L178.96 17.9L178.96 24.15L179.8 24.15C180.49 24.15 181.01 23.91 181.38 23.42C181.75 22.93 181.94 22.2 181.94 21.24L181.94 20.8C181.94 19.84 181.75 19.12 181.38 18.63C181.01 18.14 180.48 17.9 179.77 17.9ZM186.94 23.76C187.31 23.76 187.61 23.87 187.85 24.09C188.09 24.3 188.21 24.58 188.21 24.92C188.21 25.26 188.09 25.54 187.85 25.75C187.61 25.97 187.31 26.08 186.94 26.08C186.57 26.08 186.27 25.97 186.03 25.75C185.79 25.53 185.67 25.25 185.67 24.92C185.67 24.59 185.79 24.31 186.03 24.09C186.27 23.87 186.57 23.76 186.94 23.76ZM186.94 18.31C187.31 18.31 187.61 18.42 187.85 18.64C188.09 18.85 188.21 19.13 188.21 19.46C188.21 19.8 188.09 20.08 187.85 20.3C187.61 20.51 187.31 20.62 186.94 20.62C186.57 20.62 186.27 20.51 186.03 20.29C185.79 20.07 185.67 19.79 185.67 19.46C185.67 19.13 185.79 18.86 186.03 18.64C186.27 18.42 186.57 18.31 186.94 18.31ZM193.31 16.05L196.46 16.05L198.68 22.97L200.89 16.05L204.05 16.05L204.05 26L201.65 26L201.65 23.68L201.88 18.92L199.47 26L197.89 26L195.47 18.91L195.71 23.68L195.71 26L193.31 26L193.31 16.05ZM211.93 26L211.35 24.14L208.07 24.14L207.49 26L204.93 26L208.58 16.05L210.83 16.05L214.51 26L211.93 26ZM209.71 18.84L208.64 22.29L210.78 22.29L209.71 18.84ZM219.17 22.62L217.64 22.62L217.64 26L215.24 26L215.24 16.05L219.21 16.05C219.97 16.05 220.64 16.19 221.22 16.47C221.81 16.75 222.27 17.15 222.58 17.67C222.91 18.18 223.07 18.77 223.07 19.42C223.07 20.39 222.72 21.17 222.02 21.75C221.33 22.33 220.38 22.62 219.17 22.62ZM217.64 17.9L217.64 20.77L219.21 20.77C219.68 20.77 220.03 20.65 220.27 20.42C220.52 20.19 220.64 19.86 220.64 19.44C220.64 18.97 220.51 18.6 220.26 18.32C220.01 18.05 219.67 17.91 219.24 17.9L217.64 17.9Z" />
</svg>