<svg version="1.2" baseProfile="tiny-ps" xmlns="http://www.w3.org/2000/svg" viewBox="0 0 318 42" width="318" height="42">
	<title>patreon_downloadAllAssets</title>
	<style>
		tspan { white-space:pre }
		.shp0 { fill: #141518 } 
		.shp1 { fill: #ff424d } 
	</style>
	<path id="Shape 1" class="shp0" d="M5 0L313 0C315.76 0 318 2.23 318 5L318 37C318 39.76 315.76 42 313 42L5 42C2.23 42 0 39.76 0 37L0 5C0 2.23 2.23 0 5 0Z" />
	<path id="Shape 2" class="shp1" d="M30 28.24C24.34 28.24 19.76 23.66 19.76 18C19.76 12.34 24.34 7.76 30 7.76C35.66 7.76 40.24 12.34 40.24 18C40.24 23.66 35.66 28.24 30 28.24Z" />
	<path id="DOWNLOAD: All ASSETS " fill="#ffffff" aria-label="DOWNLOAD: All ASSETS"  d="M99.03 26L95.75 26L95.75 16.05L98.96 16.05Q100.28 16.05 101.33 16.65Q102.38 17.24 102.97 18.34Q103.57 19.42 103.57 20.78L103.57 21.24Q103.57 22.6 102.99 23.69Q102.42 24.77 101.36 25.38Q100.32 25.99 99.03 26ZM98.96 17.9L98.15 17.9L98.15 24.15L98.99 24.15Q100.02 24.15 100.57 23.42Q101.13 22.68 101.13 21.24L101.13 20.8Q101.13 19.36 100.57 18.63Q100.02 17.9 98.96 17.9ZM113.23 20.77L113.23 21.23Q113.23 22.68 112.69 23.81Q112.15 24.93 111.15 25.54Q110.16 26.14 108.89 26.14Q107.62 26.14 106.63 25.56Q105.65 24.97 105.1 23.88Q104.55 22.79 104.52 21.39L104.52 20.83Q104.52 19.36 105.06 18.25Q105.6 17.13 106.59 16.52Q107.6 15.91 108.88 15.91Q110.14 15.91 111.13 16.51Q112.12 17.11 112.67 18.23Q113.22 19.33 113.23 20.77ZM110.79 21.27L110.79 20.81Q110.79 19.33 110.29 18.56Q109.8 17.79 108.88 17.79Q107.07 17.79 106.97 20.5L106.96 21.23Q106.96 22.69 107.45 23.48Q107.93 24.26 108.89 24.26Q109.8 24.26 110.29 23.49Q110.78 22.72 110.79 21.27ZM120.79 16.05L122.18 22.29L123.32 16.05L125.7 16.05L123.59 26L121.1 26L119.77 20.33L118.46 26L115.98 26L113.86 16.05L116.25 16.05L117.39 22.29L118.75 16.05L120.79 16.05ZM134.95 16.05L134.95 26L132.56 26L129.04 19.81L129.04 26L126.64 26L126.64 16.05L129.04 16.05L132.56 22.24L132.56 16.05L134.95 16.05ZM138.87 16.05L138.87 24.15L143.04 24.15L143.04 26L136.47 26L136.47 16.05L138.87 16.05ZM152.05 20.77L152.05 21.23Q152.05 22.68 151.51 23.81Q150.97 24.93 149.97 25.54Q148.98 26.14 147.71 26.14Q146.43 26.14 145.45 25.56Q144.46 24.97 143.91 23.88Q143.36 22.79 143.34 21.39L143.34 20.83Q143.34 19.36 143.87 18.25Q144.41 17.13 145.41 16.52Q146.41 15.91 147.69 15.91Q148.96 15.91 149.95 16.51Q150.94 17.11 151.49 18.23Q152.04 19.33 152.05 20.77ZM149.61 21.27L149.61 20.81Q149.61 19.33 149.11 18.56Q148.61 17.79 147.69 17.79Q145.89 17.79 145.78 20.5L145.78 21.23Q145.78 22.69 146.26 23.48Q146.75 24.26 147.71 24.26Q148.61 24.26 149.11 23.49Q149.6 22.72 149.61 21.27ZM159.37 26L158.79 24.14L155.5 24.14L154.93 26L152.37 26L156.02 16.05L158.27 16.05L161.95 26L159.37 26ZM157.15 18.84L156.08 22.29L158.22 22.29L157.15 18.84ZM165.95 26L162.68 26L162.68 16.05L165.88 16.05Q167.2 16.05 168.25 16.65Q169.31 17.24 169.89 18.34Q170.49 19.42 170.5 20.78L170.5 21.24Q170.5 22.6 169.92 23.69Q169.34 24.77 168.29 25.38Q167.24 25.99 165.95 26ZM165.88 17.9L165.08 17.9L165.08 24.15L165.91 24.15Q166.94 24.15 167.5 23.42Q168.05 22.68 168.05 21.24L168.05 20.8Q168.05 19.36 167.5 18.63Q166.94 17.9 165.88 17.9ZM173.05 23.76Q173.6 23.76 173.96 24.09Q174.32 24.41 174.32 24.92Q174.32 25.43 173.96 25.75Q173.6 26.08 173.05 26.08Q172.5 26.08 172.14 25.75Q171.78 25.42 171.78 24.92Q171.78 24.42 172.14 24.09Q172.5 23.76 173.05 23.76ZM173.05 18.31Q173.6 18.31 173.96 18.64Q174.32 18.96 174.32 19.46Q174.32 19.97 173.96 20.3Q173.6 20.62 173.05 20.62Q172.5 20.62 172.14 20.29Q171.78 19.96 171.78 19.46Q171.78 18.97 172.14 18.64Q172.5 18.31 173.05 18.31ZM185.65 26L185.07 24.14L181.78 24.14L181.21 26L178.64 26L182.29 16.05L184.55 16.05L188.23 26L185.65 26ZM183.42 18.84L182.36 22.29L184.5 22.29L183.42 18.84ZM191.28 15.5L191.28 26L188.97 26L188.97 15.5L191.28 15.5ZM195.13 15.5L195.13 26L192.82 26L192.82 15.5L195.13 15.5ZM206.37 26L205.79 24.14L202.5 24.14L201.93 26L199.36 26L203.01 16.05L205.27 16.05L208.95 26L206.37 26ZM204.14 18.84L203.08 22.29L205.22 22.29L204.14 18.84ZM214.81 23.35Q214.81 22.83 214.43 22.53Q214.06 22.24 213.13 21.93Q212.19 21.61 211.59 21.32Q209.66 20.37 209.66 18.71Q209.66 17.88 210.14 17.25Q210.62 16.61 211.5 16.27Q212.39 15.91 213.49 15.91Q214.56 15.91 215.41 16.29Q216.26 16.68 216.73 17.39Q217.21 18.09 217.21 19L214.81 19Q214.81 18.39 214.44 18.06Q214.07 17.72 213.43 17.72Q212.79 17.72 212.41 18.01Q212.04 18.29 212.04 18.73Q212.04 19.11 212.46 19.42Q212.87 19.73 213.9 20.07Q214.93 20.39 215.59 20.78Q217.21 21.71 217.21 23.34Q217.21 24.65 216.22 25.39Q215.24 26.14 213.52 26.14Q212.31 26.14 211.33 25.71Q210.35 25.27 209.85 24.52Q209.36 23.76 209.36 22.77L211.76 22.77Q211.76 23.57 212.17 23.96Q212.59 24.33 213.52 24.33Q214.12 24.33 214.46 24.08Q214.81 23.82 214.81 23.35ZM223.57 23.35Q223.57 22.83 223.19 22.53Q222.83 22.24 221.89 21.93Q220.95 21.61 220.36 21.32Q218.42 20.37 218.42 18.71Q218.42 17.88 218.9 17.25Q219.39 16.61 220.27 16.27Q221.15 15.91 222.25 15.91Q223.32 15.91 224.17 16.29Q225.03 16.68 225.5 17.39Q225.97 18.09 225.97 19L223.58 19Q223.58 18.39 223.2 18.06Q222.83 17.72 222.2 17.72Q221.55 17.72 221.18 18.01Q220.81 18.29 220.81 18.73Q220.81 19.11 221.22 19.42Q221.63 19.73 222.66 20.07Q223.69 20.39 224.36 20.78Q225.97 21.71 225.97 23.34Q225.97 24.65 224.99 25.39Q224 26.14 222.29 26.14Q221.08 26.14 220.09 25.71Q219.11 25.27 218.61 24.52Q218.12 23.76 218.12 22.77L220.53 22.77Q220.53 23.57 220.94 23.96Q221.36 24.33 222.29 24.33Q222.88 24.33 223.22 24.08Q223.57 23.82 223.57 23.35ZM233.37 20L233.37 21.78L229.6 21.78L229.6 24.15L234.06 24.15L234.06 26L227.2 26L227.2 16.05L234.07 16.05L234.07 17.9L229.6 17.9L229.6 20L233.37 20ZM242.98 16.05L242.98 17.9L240 17.9L240 26L237.6 26L237.6 17.9L234.67 17.9L234.67 16.05L242.98 16.05ZM249.02 23.35Q249.02 22.83 248.64 22.53Q248.28 22.24 247.34 21.93Q246.4 21.61 245.81 21.32Q243.87 20.37 243.87 18.71Q243.87 17.88 244.35 17.25Q244.84 16.61 245.72 16.27Q246.6 15.91 247.7 15.91Q248.77 15.91 249.62 16.29Q250.48 16.68 250.95 17.39Q251.42 18.09 251.42 19L249.03 19Q249.03 18.39 248.65 18.06Q248.28 17.72 247.65 17.72Q247 17.72 246.63 18.01Q246.26 18.29 246.26 18.73Q246.26 19.11 246.67 19.42Q247.08 19.73 248.11 20.07Q249.14 20.39 249.81 20.78Q251.42 21.71 251.42 23.34Q251.42 24.65 250.44 25.39Q249.45 26.14 247.74 26.14Q246.53 26.14 245.54 25.71Q244.56 25.27 244.06 24.52Q243.57 23.76 243.57 22.77L245.98 22.77Q245.98 23.57 246.39 23.96Q246.81 24.33 247.74 24.33Q248.33 24.33 248.67 24.08Q249.02 23.82 249.02 23.35Z" />
	<path id="Shape 3" class="shp1" d="M12 7L17 7L17 35L12 35L12 7Z" />
</svg>