<svg version="1.2" baseProfile="tiny-ps" xmlns="http://www.w3.org/2000/svg" viewBox="0 0 412 42" width="412" height="42">
	<title>patreon_download_button_big_style-svg</title>
	<style>
		tspan { white-space:pre }
		.shp0 { fill: #ff424d } 
		.shp1 { fill: #ffffff } 
	</style>
	<path id="p background" class="shp0" d="M0.85 0L53.15 0C53.62 0 54 2.23 54 5L54 37C54 39.77 53.62 42 53.15 42L0.85 42C0.38 42 0 39.77 0 37L0 5C0 2.23 0.38 0 0.85 0Z" />
	<path id="P line" class="shp1" d="M13 7L18 7L18 34L13 34L13 7Z" />
	<path id="P circle" class="shp1" d="M30.5 27C25.25 27 21 22.75 21 17.5C21 12.25 25.25 8 30.5 8C35.75 8 40 12.25 40 17.5C40 22.75 35.75 27 30.5 27Z" />
	<path id=" DOWNLOAD " fill-rule="evenodd" class="shp0" d="M82.15 20.58C82.15 25.57 78.69 29 73.32 29L67 29L67 12.15L73.32 12.15C78.69 12.15 82.15 15.56 82.15 20.58ZM73.05 25.45C76.15 25.45 77.97 23.67 77.97 20.58C77.97 17.48 76.15 15.66 73.05 15.66L71.11 15.66L71.11 25.45L73.05 25.45ZM92.42 29.17C87.64 29.17 83.76 25.59 83.76 20.53C83.76 15.46 87.64 11.91 92.42 11.91C97.22 11.91 101.04 15.46 101.04 20.53C101.04 25.59 97.2 29.17 92.42 29.17ZM92.42 25.42C95.11 25.42 96.86 23.48 96.86 20.53C96.86 17.53 95.11 15.63 92.42 15.63C89.68 15.63 87.96 17.53 87.96 20.53C87.96 23.48 89.68 25.42 92.42 25.42ZM102.43 12.15L106.82 12.15L109.24 24.42L112.24 12.15L116.76 12.15L119.64 24.42L122.08 12.15L126.5 12.15L122.11 29L117.14 29L114.45 17.91L111.67 29L106.7 29L102.43 12.15ZM143.64 12.15L143.64 29L139.53 29L132.67 18.61L132.67 29L128.56 29L128.56 12.15L132.67 12.15L139.53 22.59L139.53 12.15L143.64 12.15ZM150.72 12.15L150.72 25.83L156.09 25.83L156.09 29L146.61 29L146.61 12.15L150.72 12.15ZM166.03 29.17C161.25 29.17 157.36 25.59 157.36 20.53C157.36 15.46 161.25 11.91 166.03 11.91C170.83 11.91 174.64 15.46 174.64 20.53C174.64 25.59 170.8 29.17 166.03 29.17ZM166.03 25.42C168.72 25.42 170.47 23.48 170.47 20.53C170.47 17.53 168.72 15.63 166.03 15.63C163.29 15.63 161.56 17.53 161.56 20.53C161.56 23.48 163.29 25.42 166.03 25.42ZM187.41 26.02L181.12 26.02L180.12 29L175.82 29L181.92 12.15L186.67 12.15L192.76 29L188.42 29L187.41 26.02ZM184.27 16.69L182.2 22.86L186.36 22.86L184.27 16.69ZM209.76 20.58C209.76 25.57 206.3 29 200.92 29L194.61 29L194.61 12.15L200.92 12.15C206.3 12.15 209.76 15.56 209.76 20.58ZM200.66 25.45C203.76 25.45 205.58 23.67 205.58 20.58C205.58 17.48 203.76 15.66 200.66 15.66L198.72 15.66L198.72 25.45L200.66 25.45Z" />
	<path id="bottomline" class="shp0" d="M52 40L407 40C407.55 40 408 40.45 408 41L408 41C408 41.55 407.55 42 407 42L52 42C51.45 42 51 41.55 51 41L51 41C51 40.45 51.45 40 52 40Z" />
</svg>