<svg version="1.2" baseProfile="tiny-ps" xmlns="http://www.w3.org/2000/svg" viewBox="0 0 318 42" width="318" height="42">
	<title>patreon download Sourcefiles</title>
	<style>
		tspan { white-space:pre }
		.shp0 { fill: #141518 } 
		.shp1 { fill: #ff424d } 
	</style>
	<path id="Shape 1" class="shp0" d="M5 0L313 0C315.76 0 318 2.23 318 5L318 37C318 39.76 315.76 42 313 42L5 42C2.23 42 0 39.76 0 37L0 5C0 2.23 2.23 0 5 0Z" />
	<path id="Shape 2" class="shp1" d="M30 28.24C24.34 28.24 19.76 23.66 19.76 18C19.76 12.34 24.34 7.76 30 7.76C35.66 7.76 40.24 12.34 40.24 18C40.24 23.66 35.66 28.24 30 28.24Z" />
	<path id="DOWNLOAD: SOURCE FILES " fill="#ffffff" aria-label="DOWNLOAD: SOURCE FILES"  d="M79.97 26L76.7 26L76.7 16.05L79.91 16.05Q81.22 16.05 82.28 16.65Q83.33 17.24 83.92 18.34Q84.51 19.42 84.52 20.78L84.52 21.24Q84.52 22.6 83.94 23.69Q83.36 24.77 82.31 25.38Q81.27 25.99 79.97 26ZM79.91 17.9L79.1 17.9L79.1 24.15L79.93 24.15Q80.96 24.15 81.52 23.42Q82.07 22.68 82.07 21.24L82.07 20.8Q82.07 19.36 81.52 18.63Q80.96 17.9 79.91 17.9ZM94.18 20.77L94.18 21.23Q94.18 22.68 93.64 23.81Q93.1 24.93 92.1 25.54Q91.11 26.14 89.84 26.14Q88.57 26.14 87.58 25.56Q86.6 24.97 86.04 23.88Q85.5 22.79 85.47 21.39L85.47 20.83Q85.47 19.36 86 18.25Q86.54 17.13 87.54 16.52Q88.55 15.91 89.82 15.91Q91.09 15.91 92.08 16.51Q93.07 17.11 93.62 18.23Q94.17 19.33 94.18 20.77ZM91.74 21.27L91.74 20.81Q91.74 19.33 91.24 18.56Q90.75 17.79 89.82 17.79Q88.02 17.79 87.92 20.5L87.91 21.23Q87.91 22.69 88.4 23.48Q88.88 24.26 89.84 24.26Q90.75 24.26 91.24 23.49Q91.73 22.72 91.74 21.27ZM101.74 16.05L103.13 22.29L104.27 16.05L106.65 16.05L104.54 26L102.05 26L100.71 20.33L99.41 26L96.93 26L94.81 16.05L97.19 16.05L98.33 22.29L99.7 16.05L101.74 16.05ZM115.9 16.05L115.9 26L113.51 26L109.98 19.81L109.98 26L107.58 26L107.58 16.05L109.98 16.05L113.5 22.24L113.5 16.05L115.9 16.05ZM119.81 16.05L119.81 24.15L123.99 24.15L123.99 26L117.41 26L117.41 16.05L119.81 16.05ZM132.99 20.77L132.99 21.23Q132.99 22.68 132.45 23.81Q131.91 24.93 130.92 25.54Q129.92 26.14 128.65 26.14Q127.38 26.14 126.4 25.56Q125.41 24.97 124.86 23.88Q124.31 22.79 124.28 21.39L124.28 20.83Q124.28 19.36 124.82 18.25Q125.36 17.13 126.36 16.52Q127.36 15.91 128.64 15.91Q129.9 15.91 130.89 16.51Q131.89 17.11 132.43 18.23Q132.99 19.33 132.99 20.77ZM130.55 21.27L130.55 20.81Q130.55 19.33 130.05 18.56Q129.56 17.79 128.64 17.79Q126.83 17.79 126.73 20.5L126.72 21.23Q126.72 22.69 127.21 23.48Q127.7 24.26 128.65 24.26Q129.56 24.26 130.05 23.49Q130.55 22.72 130.55 21.27ZM140.32 26L139.74 24.14L136.45 24.14L135.88 26L133.31 26L136.96 16.05L139.22 16.05L142.9 26L140.32 26ZM138.09 18.84L137.03 22.29L139.17 22.29L138.09 18.84ZM146.9 26L143.62 26L143.62 16.05L146.83 16.05Q148.15 16.05 149.2 16.65Q150.25 17.24 150.84 18.34Q151.44 19.42 151.44 20.78L151.44 21.24Q151.44 22.6 150.86 23.69Q150.29 24.77 149.24 25.38Q148.19 25.99 146.9 26ZM146.83 17.9L146.02 17.9L146.02 24.15L146.86 24.15Q147.89 24.15 148.44 23.42Q149 22.68 149 21.24L149 20.8Q149 19.36 148.44 18.63Q147.89 17.9 146.83 17.9ZM154 23.76Q154.55 23.76 154.91 24.09Q155.27 24.41 155.27 24.92Q155.27 25.43 154.91 25.75Q154.55 26.08 154 26.08Q153.45 26.08 153.08 25.75Q152.73 25.42 152.73 24.92Q152.73 24.42 153.08 24.09Q153.45 23.76 154 23.76ZM154 18.31Q154.55 18.31 154.91 18.64Q155.27 18.96 155.27 19.46Q155.27 19.97 154.91 20.3Q154.55 20.62 154 20.62Q153.45 20.62 153.08 20.29Q152.73 19.96 152.73 19.46Q152.73 18.97 153.08 18.64Q153.45 18.31 154 18.31ZM165.5 23.35Q165.5 22.83 165.12 22.53Q164.75 22.24 163.82 21.93Q162.88 21.61 162.29 21.32Q160.35 20.37 160.35 18.71Q160.35 17.88 160.83 17.25Q161.31 16.61 162.2 16.27Q163.08 15.91 164.18 15.91Q165.25 15.91 166.1 16.29Q166.95 16.68 167.43 17.39Q167.9 18.09 167.9 19L165.5 19Q165.5 18.39 165.13 18.06Q164.76 17.72 164.12 17.72Q163.48 17.72 163.11 18.01Q162.74 18.29 162.74 18.73Q162.74 19.11 163.15 19.42Q163.56 19.73 164.59 20.07Q165.62 20.39 166.28 20.78Q167.9 21.71 167.9 23.34Q167.9 24.65 166.91 25.39Q165.93 26.14 164.21 26.14Q163 26.14 162.02 25.71Q161.04 25.27 160.54 24.52Q160.05 23.76 160.05 22.77L162.46 22.77Q162.46 23.57 162.87 23.96Q163.28 24.33 164.21 24.33Q164.81 24.33 165.15 24.08Q165.5 23.82 165.5 23.35ZM177.56 20.77L177.56 21.23Q177.56 22.68 177.02 23.81Q176.48 24.93 175.48 25.54Q174.49 26.14 173.22 26.14Q171.94 26.14 170.96 25.56Q169.98 24.97 169.42 23.88Q168.88 22.79 168.85 21.39L168.85 20.83Q168.85 19.36 169.38 18.25Q169.92 17.13 170.92 16.52Q171.92 15.91 173.2 15.91Q174.47 15.91 175.46 16.51Q176.45 17.11 177 18.23Q177.55 19.33 177.56 20.77ZM175.12 21.27L175.12 20.81Q175.12 19.33 174.62 18.56Q174.13 17.79 173.2 17.79Q171.4 17.79 171.29 20.5L171.29 21.23Q171.29 22.69 171.77 23.48Q172.26 24.26 173.22 24.26Q174.13 24.26 174.62 23.49Q175.11 22.72 175.12 21.27ZM184.2 16.05L186.6 16.05L186.6 22.56Q186.6 23.67 186.13 24.48Q185.66 25.29 184.78 25.71Q183.89 26.14 182.69 26.14Q180.87 26.14 179.83 25.19Q178.78 24.25 178.76 22.61L178.76 16.05L181.17 16.05L181.17 22.66Q181.21 24.29 182.69 24.29Q183.44 24.29 183.82 23.88Q184.2 23.47 184.2 22.55L184.2 16.05ZM193.55 26L191.8 22.49L190.5 22.49L190.5 26L188.1 26L188.1 16.05L192.01 16.05Q193.79 16.05 194.78 16.83Q195.78 17.62 195.78 19.05Q195.78 20.09 195.36 20.78Q194.94 21.46 194.04 21.88L196.12 25.9L196.12 26L193.55 26ZM190.5 17.9L190.5 20.63L192.01 20.63Q192.7 20.63 193.04 20.28Q193.39 19.92 193.39 19.27Q193.39 18.63 193.04 18.27Q192.69 17.9 192.01 17.9L190.5 17.9ZM202.9 22.63L205.28 22.63Q205.24 23.67 204.72 24.47Q204.21 25.26 203.28 25.7Q202.36 26.14 201.17 26.14Q199.21 26.14 198.08 24.86Q196.95 23.58 196.95 21.25L196.95 20.76Q196.95 19.29 197.46 18.2Q197.97 17.1 198.93 16.5Q199.88 15.9 201.14 15.9Q202.95 15.9 204.05 16.86Q205.15 17.81 205.3 19.49L202.91 19.49Q202.88 18.58 202.45 18.18Q202.02 17.78 201.14 17.78Q200.25 17.78 199.83 18.45Q199.41 19.12 199.39 20.59L199.39 21.3Q199.39 22.89 199.79 23.57Q200.19 24.26 201.17 24.26Q202 24.26 202.43 23.87Q202.87 23.48 202.9 22.63ZM212.59 20L212.59 21.78L208.82 21.78L208.82 24.15L213.27 24.15L213.27 26L206.42 26L206.42 16.05L213.29 16.05L213.29 17.9L208.82 17.9L208.82 20L212.59 20ZM224.01 20.19L224.01 22.04L220.14 22.04L220.14 26L217.74 26L217.74 16.05L224.4 16.05L224.4 17.9L220.14 17.9L220.14 20.19L224.01 20.19ZM227.95 16.05L227.95 26L225.56 26L225.56 16.05L227.95 16.05ZM232.02 16.05L232.02 24.15L236.2 24.15L236.2 26L229.62 26L229.62 16.05L232.02 16.05ZM243.38 20L243.38 21.78L239.61 21.78L239.61 24.15L244.06 24.15L244.06 26L237.21 26L237.21 16.05L244.08 16.05L244.08 17.9L239.61 17.9L239.61 20L243.38 20ZM250.17 23.35Q250.17 22.83 249.8 22.53Q249.43 22.24 248.49 21.93Q247.56 21.61 246.96 21.32Q245.03 20.37 245.03 18.71Q245.03 17.88 245.51 17.25Q245.99 16.61 246.87 16.27Q247.75 15.91 248.86 15.91Q249.93 15.91 250.78 16.29Q251.63 16.68 252.1 17.39Q252.57 18.09 252.57 19L250.18 19Q250.18 18.39 249.81 18.06Q249.44 17.72 248.8 17.72Q248.16 17.72 247.78 18.01Q247.41 18.29 247.41 18.73Q247.41 19.11 247.82 19.42Q248.23 19.73 249.27 20.07Q250.3 20.39 250.96 20.78Q252.57 21.71 252.57 23.34Q252.57 24.65 251.59 25.39Q250.61 26.14 248.89 26.14Q247.68 26.14 246.7 25.71Q245.72 25.27 245.22 24.52Q244.73 23.76 244.73 22.77L247.13 22.77Q247.13 23.57 247.54 23.96Q247.96 24.33 248.89 24.33Q249.48 24.33 249.83 24.08Q250.17 23.82 250.17 23.35Z" />
	<path id="Shape 3" class="shp1" d="M12 7L17 7L17 35L12 35L12 7Z" />
</svg>