<svg version="1.2" xmlns="http://www.w3.org/2000/svg" viewBox="0 0 740 63" width="740" height="63">
	<title>patreon_download_underline_button_big_style-svg</title>
	<style>
		.s0 { fill: #ff424d } 
		.s1 { fill: #e5e3dd } 
	</style>
	<path id=" DOWNLOAD " fill-rule="evenodd" class="s0" d="m314.1 41.6c0 5-3.4 8.4-8.8 8.4h-6.3v-16.9h6.3c5.4 0 8.8 3.5 8.8 8.5zm-9.1 4.8c3.1 0 5-1.7 5-4.8 0-3.1-1.9-4.9-5-4.9h-1.9v9.8zm19.4 3.7c-4.8 0-8.7-3.6-8.7-8.7 0-5 3.9-8.6 8.7-8.6 4.8 0 8.6 3.6 8.6 8.6 0 5.1-3.8 8.7-8.6 8.7zm0-3.8c2.7 0 4.4-1.9 4.4-4.9 0-3-1.7-4.9-4.4-4.9-2.8 0-4.5 1.9-4.5 4.9 0 3 1.7 4.9 4.5 4.9zm10-13.3h4.4l2.4 12.3 3-12.3h4.5l2.9 12.3 2.4-12.3h4.5l-4.4 16.9h-5l-2.7-11.1-2.8 11.1h-4.9zm41.2 0v16.9h-4.1l-6.9-10.4v10.4h-4.1v-16.9h4.1l6.9 10.4v-10.4zm7 0v13.7h5.4v3.2h-9.5v-16.9zm15.3 17c-4.7 0-8.6-3.6-8.6-8.6 0-5.1 3.9-8.6 8.6-8.6 4.8 0 8.6 3.5 8.6 8.6 0 5-3.8 8.6-8.6 8.6zm0-3.7c2.7 0 4.5-2 4.5-4.9 0-3-1.8-4.9-4.5-4.9-2.7 0-4.4 1.9-4.4 4.9 0 2.9 1.7 4.9 4.4 4.9zm21.4 0.6h-6.3l-1 2.9h-4.3l6.1-16.8h4.8l6.1 16.9h-4.4zm-3.1-9.4l-2.1 6.2h4.2zm25.5 3.9c0 5-3.5 8.4-8.9 8.4h-6.3v-16.8h6.3c5.4 0 8.9 3.4 8.9 8.4zm-9.1 4.9c3.1 0 4.9-1.8 4.9-4.9 0-3.1-1.8-4.9-4.9-4.9h-2v9.8z"/>
	<path id="bottomline" class="s0" d="m3.1 61h734.8c1.2 0 2.1 0.4 2.1 1 0 0.5-0.9 1-2.1 1h-734.8c-1.2 0-2.1-0.5-2.1-1 0-0.6 0.9-1 2.1-1z"/>
	<path id="bottomline copy" class="s1" d="m3.1 1h734.8c1.2 0 2.1 0.4 2.1 1 0 0.5-0.9 1-2.1 1h-734.8c-1.2 0-2.1-0.5-2.1-1 0-0.6 0.9-1 2.1-1z"/>
</svg>