<svg version="1.2" xmlns="http://www.w3.org/2000/svg" viewBox="0 0 318 42" width="318" height="42">
	<title>PMC_messagecollab-svg</title>
	<style>
		.s0 { fill: #3366cc } 
		.s1 { fill: #ffffff } 
		.s2 { fill: #000000;stroke: #000000;stroke-linecap: round;stroke-linejoin: round;stroke-width: 2;stroke-dasharray: 8.000000000000004,4.000000000000002 } 
		.s3 { fill: #000000 } 
		.s4 { fill: #c38500 } 
		.s5 { fill: #e5fdff } 
		.s6 { fill: #f9feff } 
	</style>
	<path id="Shape 2" class="s0" d="m0 5c0-2.8 2.2-5 5-5h308c2.8 0 5 2.2 5 5v32c0 2.8-2.2 5-5 5h-308c-2.8 0-5-2.2-5-5z"/>
	<path id="+ " class="s1" d="m23.2 13.3v5.6h5v4.2h-5v5.8h-4.6v-5.8h-5v-4.2h5v-5.6z"/>
	<path id="JOIN THE WINTER JAM" class="s1" aria-label="JOIN THE WINTER JAM"  d="m94.2 26.2q-1 0-1.7-0.5-0.7-0.4-1.2-1.3l1.4-1q0.2 0.4 0.6 0.7 0.3 0.2 0.7 0.2 0.7 0 1-0.4 0.3-0.4 0.3-1.4v-6.3h2.2v6.5q0 0.9-0.3 1.7-0.4 0.8-1.1 1.3-0.7 0.5-1.9 0.5zm9.6 0q-1.4 0-2.4-0.6-0.9-0.7-1.5-1.8-0.6-1.1-0.6-2.7 0-1.6 0.6-2.7 0.6-1.2 1.5-1.8 1-0.6 2.4-0.6 1.3 0 2.3 0.6 1 0.6 1.6 1.8 0.5 1.1 0.5 2.7 0 1.6-0.5 2.7-0.6 1.1-1.6 1.8-1 0.6-2.3 0.6zm0-1.9q0.6 0 1.1-0.4 0.5-0.4 0.8-1.1 0.2-0.8 0.2-1.7 0-1-0.2-1.7-0.3-0.7-0.8-1.1-0.5-0.3-1.1-0.3-0.7 0-1.2 0.3-0.5 0.4-0.8 1.1-0.2 0.7-0.2 1.7 0 0.9 0.2 1.7 0.3 0.7 0.8 1.1 0.5 0.4 1.2 0.4zm8.5 1.7h-2.3v-9.8h2.3zm4.4 0h-2.1v-9.8h2.3l2.5 4.9q0.3 0.5 0.5 1 0.2 0.6 0.4 1.2h0.1q-0.1-0.8-0.2-1.8-0.1-0.9-0.1-1.8v-3.5h2.1v9.8h-2.3l-2.5-4.8q-0.2-0.5-0.5-1.1-0.2-0.5-0.5-1.1 0.1 0.8 0.2 1.8 0.1 0.9 0.1 1.8zm15 0h-2.3v-8h-2.6v-1.8h7.5v1.8h-2.6zm6.4 0h-2.2v-9.7h2.2v3.7h3.4v-3.7h2.2v9.7h-2.2v-4h-3.4zm14.2 0h-6.3v-9.8h6.1v1.8h-3.9v2h3.3v1.8h-3.3v2.3h4.1zm8.5 0h-2.8l-1.7-9.8h2.3l0.6 4.6q0.1 0.8 0.2 1.5 0.1 0.8 0.2 1.6 0.2-0.8 0.3-1.6 0.2-0.8 0.3-1.5l1-4.6h2l1 4.6q0.1 0.7 0.3 1.5 0.1 0.8 0.3 1.6 0.1-0.8 0.2-1.6 0.1-0.8 0.2-1.5l0.7-4.6h2.2l-1.8 9.8h-2.9l-0.9-4.4q-0.1-0.6-0.2-1.2-0.1-0.6-0.1-1.2h-0.1q-0.1 0.6-0.2 1.2 0 0.6-0.1 1.2zm10.7 0h-2.2v-9.8h2.2zm4.4 0h-2.1v-9.8h2.3l2.6 4.8q0.2 0.5 0.4 1.1 0.3 0.5 0.5 1.1h0.1q-0.1-0.8-0.2-1.7-0.1-1-0.1-1.8v-3.5h2.1v9.8h-2.3l-2.5-4.8q-0.3-0.5-0.5-1.1-0.3-0.6-0.5-1.1 0 0.8 0.1 1.7 0.1 0.9 0.1 1.8zm12 0h-2.2v-7.9h-2.7v-1.9h7.6v1.9h-2.7zm10.5 0h-6.2v-9.8h6.1v1.9h-3.9v1.9h3.3v1.9h-3.3v2.2h4zm4.2 0h-2.2v-9.7h3.5q1 0 1.9 0.2 0.8 0.3 1.4 1 0.5 0.6 0.5 1.8 0 1.1-0.5 1.8-0.6 0.7-1.4 1.1-0.9 0.3-1.9 0.3h-1.3zm0-8v2.7h1.1q0.9 0 1.3-0.3 0.5-0.4 0.5-1.1 0-0.7-0.5-1-0.4-0.3-1.3-0.3zm5.6 8h-2.5l-2.2-4.1 1.6-1.4zm6.5 0.2q-1 0-1.8-0.5-0.7-0.4-1.2-1.3l1.4-1q0.2 0.4 0.6 0.6 0.4 0.3 0.8 0.3 0.6 0 0.9-0.4 0.4-0.4 0.4-1.4v-6.3h2.2v6.5q0 0.9-0.4 1.7-0.3 0.8-1.1 1.3-0.7 0.5-1.8 0.5zm6.5-0.2h-2.2l3-9.8h2.7l3.1 9.8h-2.4l-1.3-5q-0.2-0.7-0.4-1.5-0.2-0.8-0.4-1.6-0.2 0.8-0.4 1.6-0.2 0.8-0.4 1.5zm4.5-2.3h-4.7v-1.7h4.7zm5.1 2.3h-2v-9.8h2.5l1.5 4.4q0.2 0.4 0.3 0.9 0.1 0.4 0.3 0.9 0.2-0.5 0.3-0.9 0.1-0.5 0.3-0.9l1.5-4.4h2.4v9.8h-2v-3.6q0-0.5 0.1-1.1 0-0.7 0.1-1.3 0.1-0.7 0.1-1.1l-0.8 2.5-1.4 3.8h-1.3l-1.4-3.8-0.7-2.5h-0.1q0.1 0.4 0.1 1.1 0.1 0.6 0.1 1.3 0.1 0.6 0.1 1.1z"/>
	<g id="Folder 1">
		<path id="Shape 10" class="s2" d="m293 17l-8-6"/>
		<path id="Shape 10 copy" class="s2" d="m302.5 17.8l7.1-7"/>
		<path id="Shape 3" class="s1" d="m297.7 38.3c-4.3 0-7.7-3.4-7.7-7.6 0-4.3 3.4-7.7 7.7-7.7 4.2 0 7.6 3.4 7.6 7.7 0 4.2-3.4 7.6-7.6 7.6z"/>
		<path id="Shape 4" class="s1" d="m297.5 24.9c-3.1 0-5.5-2.4-5.5-5.4 0-3.1 2.4-5.5 5.5-5.5 3 0 5.4 2.4 5.4 5.5 0 3-2.4 5.4-5.4 5.4z"/>
		<path id="Shape 5" class="s1" d="m297.5 15c-1.9 0-3.5-1.6-3.5-3.5 0-1.9 1.6-3.5 3.5-3.5 1.9 0 3.5 1.6 3.5 3.5 0 1.9-1.6 3.5-3.5 3.5z"/>
		<path id="Shape 6" class="s3" d="m293.2 7.3l8.9 1.5-0.3 1.9-8.9-1.5z"/>
		<path id="Shape 7" class="s3" d="m297.8 2l4.5 2.2-2.6 5.4-4.5-2.2z"/>
		<path id="Shape 8" class="s3" d="m295 11h1v1h-1z"/>
		<path id="Shape 9" class="s3" d="m298 11h1v1h-1z"/>
		<path id="Shape 11" class="s4" d="m295 12h3v1h-3z"/>
	</g>
	<path id="Shape 12" class="s5" d="m313 42h-39c0 0 10-7.9 21-8 11-0.1 18 8 18 8z"/>
	<path id="Shape 12 copy" class="s6" d="m293.7 42h-27.7c0 0 7.1-5.6 14.9-5.7 7.8 0 12.8 5.7 12.8 5.7z"/>
</svg>