<svg version="1.2" baseProfile="tiny-ps" xmlns="http://www.w3.org/2000/svg" viewBox="0 0 318 42" width="318" height="42">
	<title>patreon download Sourcefiles</title>
	<style>
		tspan { white-space:pre }
		.shp0 { fill: none;stroke: #141518;stroke-width: 3.4 } 
		.shp1 { fill: #ff424d } 
	</style>
	<path id="Shape 1" class="shp0" d="M5 0L313 0C315.76 0 318 2.23 318 5L318 37C318 39.76 315.76 42 313 42L5 42C2.23 42 0 39.76 0 37L0 5C0 2.23 2.23 0 5 0Z" />
	<path id="Shape 2" class="shp1" d="M30 28.24C24.34 28.24 19.76 23.66 19.76 18C19.76 12.34 24.34 7.76 30 7.76C35.66 7.76 40.24 12.34 40.24 18C40.24 23.66 35.66 28.24 30 28.24Z" />
	<path id="SOURCE FILES " fill="#ffffff" aria-label="SOURCE FILES"  d="M123.67 23.35Q123.67 22.83 123.29 22.53Q122.92 22.24 121.98 21.93Q121.05 21.61 120.45 21.32Q118.52 20.37 118.52 18.71Q118.52 17.88 119 17.25Q119.48 16.61 120.36 16.27Q121.25 15.91 122.35 15.91Q123.42 15.91 124.27 16.29Q125.12 16.68 125.59 17.39Q126.06 18.09 126.06 19L123.67 19Q123.67 18.39 123.3 18.06Q122.93 17.72 122.29 17.72Q121.65 17.72 121.27 18.01Q120.9 18.29 120.9 18.73Q120.9 19.11 121.31 19.42Q121.72 19.73 122.76 20.07Q123.79 20.39 124.45 20.78Q126.06 21.71 126.06 23.34Q126.06 24.65 125.08 25.39Q124.1 26.14 122.38 26.14Q121.17 26.14 120.19 25.71Q119.21 25.27 118.71 24.52Q118.22 23.76 118.22 22.77L120.62 22.77Q120.62 23.57 121.03 23.96Q121.45 24.33 122.38 24.33Q122.98 24.33 123.32 24.08Q123.67 23.82 123.67 23.35ZM135.72 20.77L135.72 21.23Q135.72 22.68 135.18 23.81Q134.64 24.93 133.65 25.54Q132.65 26.14 131.38 26.14Q130.11 26.14 129.13 25.56Q128.14 24.97 127.59 23.88Q127.04 22.79 127.02 21.39L127.02 20.83Q127.02 19.36 127.55 18.25Q128.09 17.13 129.09 16.52Q130.09 15.91 131.37 15.91Q132.63 15.91 133.63 16.51Q134.62 17.11 135.16 18.23Q135.72 19.33 135.72 20.77ZM133.28 21.27L133.28 20.81Q133.28 19.33 132.78 18.56Q132.29 17.79 131.37 17.79Q129.56 17.79 129.46 20.5L129.46 21.23Q129.46 22.69 129.94 23.48Q130.43 24.26 131.38 24.26Q132.29 24.26 132.78 23.49Q133.28 22.72 133.28 21.27ZM142.37 16.05L144.77 16.05L144.77 22.56Q144.77 23.67 144.3 24.48Q143.82 25.29 142.94 25.71Q142.06 26.14 140.86 26.14Q139.04 26.14 137.99 25.19Q136.95 24.25 136.93 22.61L136.93 16.05L139.34 16.05L139.34 22.66Q139.38 24.29 140.86 24.29Q141.6 24.29 141.99 23.88Q142.37 23.47 142.37 22.55L142.37 16.05ZM151.72 26L149.96 22.49L148.66 22.49L148.66 26L146.27 26L146.27 16.05L150.18 16.05Q151.95 16.05 152.95 16.83Q153.95 17.62 153.95 19.05Q153.95 20.09 153.52 20.78Q153.11 21.46 152.21 21.88L154.29 25.9L154.29 26L151.72 26ZM148.66 17.9L148.66 20.63L150.18 20.63Q150.87 20.63 151.21 20.28Q151.56 19.92 151.56 19.27Q151.56 18.63 151.21 18.27Q150.86 17.9 150.18 17.9L148.66 17.9ZM161.06 22.63L163.45 22.63Q163.4 23.67 162.89 24.47Q162.38 25.26 161.45 25.7Q160.52 26.14 159.34 26.14Q157.37 26.14 156.25 24.86Q155.12 23.58 155.12 21.25L155.12 20.76Q155.12 19.29 155.62 18.2Q156.14 17.1 157.09 16.5Q158.05 15.9 159.31 15.9Q161.12 15.9 162.22 16.86Q163.32 17.81 163.47 19.49L161.08 19.49Q161.05 18.58 160.62 18.18Q160.19 17.78 159.31 17.78Q158.41 17.78 158 18.45Q157.58 19.12 157.56 20.59L157.56 21.3Q157.56 22.89 157.95 23.57Q158.36 24.26 159.34 24.26Q160.16 24.26 160.6 23.87Q161.04 23.48 161.06 22.63ZM170.76 20L170.76 21.78L166.98 21.78L166.98 24.15L171.44 24.15L171.44 26L164.59 26L164.59 16.05L171.46 16.05L171.46 17.9L166.98 17.9L166.98 20L170.76 20ZM182.17 20.19L182.17 22.04L178.31 22.04L178.31 26L175.91 26L175.91 16.05L182.56 16.05L182.56 17.9L178.31 17.9L178.31 20.19L182.17 20.19ZM186.12 16.05L186.12 26L183.73 26L183.73 16.05L186.12 16.05ZM190.19 16.05L190.19 24.15L194.36 24.15L194.36 26L187.79 26L187.79 16.05L190.19 16.05ZM201.55 20L201.55 21.78L197.77 21.78L197.77 24.15L202.23 24.15L202.23 26L195.37 26L195.37 16.05L202.24 16.05L202.24 17.9L197.77 17.9L197.77 20L201.55 20ZM208.34 23.35Q208.34 22.83 207.97 22.53Q207.6 22.24 206.66 21.93Q205.72 21.61 205.13 21.32Q203.19 20.37 203.19 18.71Q203.19 17.88 203.67 17.25Q204.16 16.61 205.04 16.27Q205.92 15.91 207.02 15.91Q208.1 15.91 208.94 16.29Q209.8 16.68 210.27 17.39Q210.74 18.09 210.74 19L208.35 19Q208.35 18.39 207.97 18.06Q207.6 17.72 206.97 17.72Q206.33 17.72 205.95 18.01Q205.58 18.29 205.58 18.73Q205.58 19.11 205.99 19.42Q206.4 19.73 207.43 20.07Q208.47 20.39 209.13 20.78Q210.74 21.71 210.74 23.34Q210.74 24.65 209.76 25.39Q208.77 26.14 207.06 26.14Q205.85 26.14 204.86 25.71Q203.89 25.27 203.39 24.52Q202.89 23.76 202.89 22.77L205.3 22.77Q205.3 23.57 205.71 23.96Q206.13 24.33 207.06 24.33Q207.65 24.33 207.99 24.08Q208.34 23.82 208.34 23.35Z" />
	<path id="Shape 3" class="shp1" d="M12 7L17 7L17 35L12 35L12 7Z" />
</svg>